<svg width="300" height="300" viewBox="0 0 300 300" fill="none" xmlns="http://www.w3.org/2000/svg">
<g filter="url(#filter0_d_7168_726)">
<circle cx="139.55" cy="135.854" r="51.5503" fill="white"/>
</g>
<g clip-path="url(#clip0_7168_726)">
<path d="M135.375 114.883C121.456 114.883 113.104 126.048 113.104 131.631C113.104 137.215 115.888 141.402 121.456 141.402C127.024 141.402 129.808 142.797 129.808 146.984C129.808 152.566 133.983 156.753 139.551 156.753C157.646 156.753 165.996 146.984 165.996 137.215C165.995 120.466 152.074 114.883 135.375 114.883ZM131.895 120.466C132.353 120.467 132.806 120.557 133.228 120.733C133.651 120.908 134.034 121.166 134.357 121.49C134.681 121.813 134.937 122.198 135.111 122.621C135.286 123.044 135.375 123.497 135.375 123.955C135.375 125.883 133.817 127.444 131.895 127.444C129.973 127.444 128.415 125.882 128.415 123.955C128.415 123.497 128.504 123.044 128.679 122.621C128.853 122.198 129.11 121.813 129.433 121.49C129.756 121.166 130.14 120.908 130.562 120.733C130.985 120.557 131.437 120.467 131.895 120.466ZM143.029 120.466C143.486 120.467 143.939 120.557 144.362 120.733C144.784 120.908 145.168 121.166 145.491 121.49C145.814 121.813 146.07 122.198 146.245 122.621C146.419 123.044 146.509 123.497 146.508 123.955C146.509 124.412 146.42 124.865 146.245 125.289C146.071 125.712 145.814 126.096 145.491 126.42C145.168 126.744 144.784 127.001 144.362 127.177C143.939 127.353 143.486 127.444 143.029 127.444C142.571 127.443 142.118 127.353 141.696 127.177C141.273 127.001 140.889 126.744 140.566 126.42C140.243 126.096 139.987 125.711 139.813 125.288C139.639 124.865 139.549 124.412 139.55 123.955C139.549 123.031 139.914 122.144 140.567 121.49C141.219 120.836 142.105 120.467 143.029 120.466ZM154.164 126.048C154.622 126.049 155.075 126.139 155.498 126.315C155.921 126.49 156.304 126.748 156.628 127.072C156.951 127.396 157.207 127.78 157.382 128.204C157.556 128.627 157.646 129.08 157.645 129.538C157.646 129.995 157.556 130.449 157.382 130.872C157.207 131.295 156.951 131.679 156.628 132.003C156.304 132.327 155.92 132.585 155.498 132.76C155.075 132.936 154.622 133.026 154.164 133.026C153.707 133.026 153.254 132.935 152.831 132.76C152.409 132.584 152.025 132.327 151.702 132.003C151.379 131.679 151.123 131.295 150.948 130.872C150.774 130.449 150.685 129.995 150.686 129.538C150.685 129.08 150.774 128.627 150.948 128.204C151.123 127.781 151.379 127.396 151.702 127.072C152.025 126.748 152.409 126.491 152.831 126.315C153.254 126.139 153.707 126.049 154.164 126.048ZM122.152 128.84C122.61 128.841 123.062 128.931 123.485 129.107C123.907 129.282 124.291 129.539 124.614 129.863C124.937 130.187 125.193 130.571 125.368 130.994C125.542 131.417 125.632 131.87 125.631 132.328C125.631 134.256 124.073 135.817 122.152 135.817C120.232 135.817 118.672 134.255 118.672 132.328C118.671 131.404 119.038 130.518 119.69 129.864C120.343 129.21 121.228 128.841 122.152 128.84ZM139.55 142.797C141.856 142.797 143.725 144.67 143.725 146.985C143.725 149.297 141.856 151.171 139.55 151.171C137.244 151.171 135.375 149.297 135.375 146.985C135.374 146.436 135.481 145.892 135.69 145.384C135.9 144.876 136.207 144.415 136.595 144.026C136.982 143.637 137.443 143.328 137.95 143.117C138.457 142.906 139.001 142.798 139.55 142.797Z" fill="#FF7F8C"/>
</g>
<defs>
<filter id="filter0_d_7168_726" x="0" y="0.303314" width="299.101" height="299.101" filterUnits="userSpaceOnUse" color-interpolation-filters="sRGB">
<feFlood flood-opacity="0" result="BackgroundImageFix"/>
<feColorMatrix in="SourceAlpha" type="matrix" values="0 0 0 0 0 0 0 0 0 0 0 0 0 0 0 0 0 0 127 0" result="hardAlpha"/>
<feOffset dx="10" dy="14"/>
<feGaussianBlur stdDeviation="49"/>
<feComposite in2="hardAlpha" operator="out"/>
<feColorMatrix type="matrix" values="0 0 0 0 0.695833 0 0 0 0 0.695833 0 0 0 0 0.695833 0 0 0 0.25 0"/>
<feBlend mode="normal" in2="BackgroundImageFix" result="effect1_dropShadow_7168_726"/>
<feBlend mode="normal" in="SourceGraphic" in2="effect1_dropShadow_7168_726" result="shape"/>
</filter>
<clipPath id="clip0_7168_726">
<rect width="83" height="83" fill="white" transform="translate(88 73)"/>
</clipPath>
</defs>
</svg>
