<svg width="252" height="252" viewBox="0 0 252 252" fill="none" xmlns="http://www.w3.org/2000/svg">
<g filter="url(#filter0_d_7168_728)">
<circle cx="116.021" cy="112.091" r="27.4133" fill="white"/>
</g>
<path d="M113.167 107.688V117.313C113.167 117.876 113.833 118.206 114.3 117.863L120.916 113.05C121.299 112.775 121.299 112.225 120.916 111.95L114.3 107.138C114.195 107.061 114.07 107.014 113.939 107.003C113.808 106.991 113.676 107.015 113.559 107.073C113.441 107.13 113.342 107.217 113.273 107.326C113.204 107.435 113.167 107.56 113.167 107.688ZM114.584 100.441C114.584 99.5613 113.748 98.8875 112.87 99.08C111.283 99.4375 109.781 100.043 108.45 100.868C107.699 101.335 107.585 102.38 108.223 102.999C108.676 103.439 109.399 103.549 109.937 103.219C111.028 102.545 112.232 102.05 113.535 101.775C114.159 101.638 114.584 101.074 114.584 100.441ZM106.225 104.951C105.574 104.333 104.511 104.429 104.03 105.171C103.18 106.464 102.556 107.921 102.188 109.461C101.99 110.314 102.67 111.125 103.576 111.125C104.214 111.125 104.809 110.713 104.936 110.108C105.22 108.856 105.744 107.674 106.424 106.629C106.792 106.093 106.679 105.391 106.225 104.951ZM103.576 113.875C102.67 113.875 101.975 114.686 102.174 115.539C102.542 117.079 103.165 118.523 104.015 119.829C104.497 120.571 105.574 120.668 106.211 120.049C106.665 119.609 106.778 118.908 106.424 118.385C105.73 117.34 105.22 116.171 104.936 114.906C104.809 114.288 104.228 113.875 103.576 113.875ZM108.45 124.119C109.795 124.944 111.283 125.549 112.87 125.906C113.748 126.099 114.584 125.425 114.584 124.559C114.584 123.94 114.159 123.363 113.535 123.239C112.264 122.962 111.051 122.473 109.951 121.795C109.683 121.636 109.366 121.571 109.054 121.611C108.742 121.651 108.454 121.794 108.237 122.015C108.084 122.155 107.966 122.327 107.893 122.518C107.819 122.709 107.791 122.914 107.812 123.117C107.832 123.321 107.9 123.516 108.011 123.69C108.121 123.864 108.272 124.01 108.45 124.119ZM130.167 112.5C130.167 119.004 125.492 124.476 119.216 125.893C118.338 126.099 117.488 125.425 117.488 124.545C117.488 123.913 117.927 123.363 118.55 123.211C123.58 122.084 127.334 117.711 127.334 112.5C127.334 107.289 123.58 102.916 118.55 101.789C117.927 101.651 117.488 101.088 117.488 100.455C117.488 99.575 118.338 98.9013 119.216 99.1075C125.492 100.524 130.167 105.996 130.167 112.5Z" fill="#6A86EB"/>
<defs>
<filter id="filter0_d_7168_728" x="0.607422" y="0.677612" width="250.827" height="250.827" filterUnits="userSpaceOnUse" color-interpolation-filters="sRGB">
<feFlood flood-opacity="0" result="BackgroundImageFix"/>
<feColorMatrix in="SourceAlpha" type="matrix" values="0 0 0 0 0 0 0 0 0 0 0 0 0 0 0 0 0 0 127 0" result="hardAlpha"/>
<feOffset dx="10" dy="14"/>
<feGaussianBlur stdDeviation="49"/>
<feComposite in2="hardAlpha" operator="out"/>
<feColorMatrix type="matrix" values="0 0 0 0 0.695833 0 0 0 0 0.695833 0 0 0 0 0.695833 0 0 0 0.25 0"/>
<feBlend mode="normal" in2="BackgroundImageFix" result="effect1_dropShadow_7168_728"/>
<feBlend mode="normal" in="SourceGraphic" in2="effect1_dropShadow_7168_728" result="shape"/>
</filter>
</defs>
</svg>
