<svg width="25" height="25" viewBox="0 0 25 25" fill="none" xmlns="http://www.w3.org/2000/svg">
<path d="M13.3361 20.1086H6.24609L12.2461 14.1086L14.1261 15.9886C14.7461 15.0086 15.6061 14.2086 16.6461 13.7086L18.2461 12.1086V13.1986C18.5761 13.1486 18.9061 13.1086 19.2461 13.1086C19.5861 13.1086 19.9161 13.1486 20.2461 13.1986V8.10864L14.2461 2.10864H6.24609C5.13609 2.10864 4.24609 2.99864 4.24609 4.10864V20.1086C4.24609 20.6391 4.45681 21.1478 4.83188 21.5229C5.20695 21.8979 5.71566 22.1086 6.24609 22.1086H14.0561C13.7061 21.4986 13.4561 20.8286 13.3361 20.1086ZM13.2461 3.60864L18.7461 9.10864H13.2461V3.60864ZM8.24609 9.10864C8.77653 9.10864 9.28523 9.31936 9.66031 9.69443C10.0354 10.0695 10.2461 10.5782 10.2461 11.1086C10.2461 11.6391 10.0354 12.1478 9.66031 12.5229C9.28523 12.8979 8.77653 13.1086 8.24609 13.1086C7.13609 13.1086 6.24609 12.2186 6.24609 11.1086C6.24609 9.99864 7.14609 9.10864 8.24609 9.10864ZM20.2461 15.1086V18.1086H23.2461V20.1086H20.2461V23.1086H18.2461V20.1086H15.2461V18.1086H18.2461V15.1086H20.2461Z" fill="#B6B6B6"/>
</svg>
