<svg width="18" height="19" viewBox="0 0 18 19" fill="none" xmlns="http://www.w3.org/2000/svg">
<path d="M0.611329 3.08513C0.611329 2.51802 0.831607 1.97414 1.2237 1.57313C1.6158 1.17212 2.1476 0.946838 2.7021 0.946838H12.9659C13.5204 0.946838 14.0522 1.17212 14.4443 1.57313C14.8364 1.97414 15.0567 2.51802 15.0567 3.08513V4.0633C15.7784 4.11262 16.4547 4.44061 16.9488 4.98086C17.4429 5.5211 17.7177 6.23321 17.7177 6.97293V15.1373C17.7177 15.9107 17.4173 16.6523 16.8826 17.1991C16.3479 17.746 15.6228 18.0532 14.8666 18.0532H3.46543C2.70928 18.0532 1.9841 17.746 1.44943 17.1991C0.914749 16.6523 0.61437 15.9107 0.61437 15.1373V6.97293H0.611329V3.27952H0.619692C0.614058 3.21488 0.611268 3.15002 0.611329 3.08513ZM13.9163 3.08513C13.9163 2.54861 13.4905 2.11318 12.9659 2.11318H2.7021C2.45005 2.11318 2.20833 2.21558 2.0301 2.39786C1.85188 2.58013 1.75175 2.82735 1.75175 3.08513C1.75175 3.34291 1.85188 3.59013 2.0301 3.7724C2.20833 3.95468 2.45005 4.05708 2.7021 4.05708H13.9163V3.08513ZM12.5858 11.0551C12.4345 11.0551 12.2895 11.1166 12.1826 11.2259C12.0756 11.3353 12.0156 11.4836 12.0156 11.6383C12.0156 11.793 12.0756 11.9413 12.1826 12.0507C12.2895 12.16 12.4345 12.2215 12.5858 12.2215H14.4865C14.6377 12.2215 14.7827 12.16 14.8897 12.0507C14.9966 11.9413 15.0567 11.793 15.0567 11.6383C15.0567 11.4836 14.9966 11.3353 14.8897 11.2259C14.7827 11.1166 14.6377 11.0551 14.4865 11.0551H12.5858Z" fill="white"/>
</svg>
